<svg width="600" height="400" viewBox="-100 -350 600 400" xmlns="http://www.w3.org/2000/svg">
	
	
	
	
	<line x1="0" y1="0" x2="0" y2="-320" stroke="gray" stroke-opacity="0.7"></line>
	
	<line x1="40" y1="0" x2="40" y2="-320" stroke="gray" stroke-opacity="0.7"></line>
	
	<line x1="80" y1="0" x2="80" y2="-320" stroke="gray" stroke-opacity="0.7"></line>
	
	<line x1="120" y1="0" x2="120" y2="-320" stroke="gray" stroke-opacity="0.7"></line>
	
	<line x1="160" y1="0" x2="160" y2="-320" stroke="gray" stroke-opacity="0.7"></line>
	
	<line x1="200" y1="0" x2="200" y2="-320" stroke="gray" stroke-opacity="0.7"></line>
	
	<line x1="240" y1="0" x2="240" y2="-320" stroke="gray" stroke-opacity="0.7"></line>
	
	<line x1="0" y1="0" x2="240" y2="0" stroke="gray" stroke-opacity="0.7"></line>
	
	<line x1="0" y1="-40" x2="240" y2="-40" stroke="gray" stroke-opacity="0.7"></line>
	
	<line x1="0" y1="-80" x2="240" y2="-80" stroke="gray" stroke-opacity="0.7"></line>
	
	<line x1="0" y1="-120" x2="240" y2="-120" stroke="gray" stroke-opacity="0.7"></line>
	
	<line x1="0" y1="-160" x2="240" y2="-160" stroke="gray" stroke-opacity="0.7"></line>
	
	<line x1="0" y1="-200" x2="240" y2="-200" stroke="gray" stroke-opacity="0.7"></line>
	
	<line x1="0" y1="-240" x2="240" y2="-240" stroke="gray" stroke-opacity="0.7"></line>
	
	<line x1="0" y1="-280" x2="240" y2="-280" stroke="gray" stroke-opacity="0.7"></line>
	
	<line x1="0" y1="-320" x2="240" y2="-320" stroke="gray" stroke-opacity="0.7"></line>
	
	<line x1="240" y1="0" x2="232" y2="-8" stroke="black"></line>
	<line x1="240" y1="0" x2="232" y2="8" stroke="black"></line>
	<line x1="0" y1="0" x2="240" y2="0" stroke="black" stroke-width="2"></line>
	<line x1="0" y1="-320" x2="-8" y2="-312" stroke="black"></line>
	<line x1="0" y1="-320" x2="8" y2="-312" stroke="black"></line>
	<line x1="0" y1="0" x2="0" y2="-320" stroke="black" stroke-width="2"></line>
	
	<line x1="0" y1="8" x2="0" y2="-8" stroke="black" stroke-width="2"></line>
	
	<line x1="40" y1="8" x2="40" y2="-8" stroke="black" stroke-width="2"></line>
	
	<line x1="80" y1="8" x2="80" y2="-8" stroke="black" stroke-width="2"></line>
	
	<line x1="120" y1="8" x2="120" y2="-8" stroke="black" stroke-width="2"></line>
	
	<line x1="160" y1="8" x2="160" y2="-8" stroke="black" stroke-width="2"></line>
	
	<line x1="200" y1="8" x2="200" y2="-8" stroke="black" stroke-width="2"></line>
	
	<line x1="-8" y1="0" x2="8" y2="0" stroke="black" stroke-width="2"></line>
	
	<line x1="-8" y1="-40" x2="8" y2="-40" stroke="black" stroke-width="2"></line>
	
	<line x1="-8" y1="-80" x2="8" y2="-80" stroke="black" stroke-width="2"></line>
	
	<line x1="-8" y1="-120" x2="8" y2="-120" stroke="black" stroke-width="2"></line>
	
	<line x1="-8" y1="-160" x2="8" y2="-160" stroke="black" stroke-width="2"></line>
	
	<line x1="-8" y1="-200" x2="8" y2="-200" stroke="black" stroke-width="2"></line>
	
	<line x1="-8" y1="-240" x2="8" y2="-240" stroke="black" stroke-width="2"></line>
	
	<line x1="-8" y1="-280" x2="8" y2="-280" stroke="black" stroke-width="2"></line>
	
	
	
	<text x="40" y="24" text-anchor="middle" dominant-baseline="central" fill="black">1</text>
 
	<text x="80" y="24" text-anchor="middle" dominant-baseline="central" fill="black">2</text>
 
	<text x="120" y="24" text-anchor="middle" dominant-baseline="central" fill="black">3</text>
 
	<text x="160" y="24" text-anchor="middle" dominant-baseline="central" fill="black">4</text>
 
	<text x="200" y="24" text-anchor="middle" dominant-baseline="central" fill="black">5</text>
 
	<text x="240" y="24" text-anchor="middle" dominant-baseline="central" fill="black">6</text>
 
	
	<text x="-24" y="-40" text-anchor="middle" dominant-baseline="central" fill="black">1</text>
 
	<text x="-24" y="-80" text-anchor="middle" dominant-baseline="central" fill="black">2</text>
 
	<text x="-24" y="-120" text-anchor="middle" dominant-baseline="central" fill="black">3</text>
 
	<text x="-24" y="-160" text-anchor="middle" dominant-baseline="central" fill="black">4</text>
 
	<text x="-24" y="-200" text-anchor="middle" dominant-baseline="central" fill="black">5</text>
 
	<text x="-24" y="-240" text-anchor="middle" dominant-baseline="central" fill="black">6</text>
 
	<text x="-24" y="-280" text-anchor="middle" dominant-baseline="central" fill="black">7</text>
 
	<text x="-24" y="-320" text-anchor="middle" dominant-baseline="central" fill="black">8</text>
 
	<text x="248" y="-12" text-anchor="start" dominant-baseline="central" fill="black">Longueur AB</text>
 
	<text x="0" y="-332" text-anchor="start" dominant-baseline="central" fill="black"></text>
 
	
	
	<line x1="0" y1="0" x2="0" y2="-320" stroke="gray" stroke-opacity="0.7"></line>
	
	<line x1="40" y1="0" x2="40" y2="-320" stroke="gray" stroke-opacity="0.7"></line>
	
	<line x1="80" y1="0" x2="80" y2="-320" stroke="gray" stroke-opacity="0.7"></line>
	
	<line x1="120" y1="0" x2="120" y2="-320" stroke="gray" stroke-opacity="0.7"></line>
	
	<line x1="160" y1="0" x2="160" y2="-320" stroke="gray" stroke-opacity="0.7"></line>
	
	<line x1="200" y1="0" x2="200" y2="-320" stroke="gray" stroke-opacity="0.7"></line>
	
	<line x1="240" y1="0" x2="240" y2="-320" stroke="gray" stroke-opacity="0.7"></line>
	
	<line x1="0" y1="0" x2="240" y2="0" stroke="gray" stroke-opacity="0.7"></line>
	
	<line x1="0" y1="-40" x2="240" y2="-40" stroke="gray" stroke-opacity="0.7"></line>
	
	<line x1="0" y1="-80" x2="240" y2="-80" stroke="gray" stroke-opacity="0.7"></line>
	
	<line x1="0" y1="-120" x2="240" y2="-120" stroke="gray" stroke-opacity="0.7"></line>
	
	<line x1="0" y1="-160" x2="240" y2="-160" stroke="gray" stroke-opacity="0.7"></line>
	
	<line x1="0" y1="-200" x2="240" y2="-200" stroke="gray" stroke-opacity="0.7"></line>
	
	<line x1="0" y1="-240" x2="240" y2="-240" stroke="gray" stroke-opacity="0.7"></line>
	
	<line x1="0" y1="-280" x2="240" y2="-280" stroke="gray" stroke-opacity="0.7"></line>
	
	<line x1="0" y1="-320" x2="240" y2="-320" stroke="gray" stroke-opacity="0.7"></line>
	
	<line x1="0" y1="0" x2="0" y2="-320" stroke="gray" stroke-opacity="0.7"></line>
	
	<line x1="40" y1="0" x2="40" y2="-320" stroke="gray" stroke-opacity="0.7"></line>
	
	<line x1="80" y1="0" x2="80" y2="-320" stroke="gray" stroke-opacity="0.7"></line>
	
	<line x1="120" y1="0" x2="120" y2="-320" stroke="gray" stroke-opacity="0.7"></line>
	
	<line x1="160" y1="0" x2="160" y2="-320" stroke="gray" stroke-opacity="0.7"></line>
	
	<line x1="200" y1="0" x2="200" y2="-320" stroke="gray" stroke-opacity="0.7"></line>
	
	<line x1="240" y1="0" x2="240" y2="-320" stroke="gray" stroke-opacity="0.7"></line>
	
	<line x1="0" y1="0" x2="240" y2="0" stroke="gray" stroke-opacity="0.7"></line>
	
	<line x1="0" y1="-40" x2="240" y2="-40" stroke="gray" stroke-opacity="0.7"></line>
	
	<line x1="0" y1="-80" x2="240" y2="-80" stroke="gray" stroke-opacity="0.7"></line>
	
	<line x1="0" y1="-120" x2="240" y2="-120" stroke="gray" stroke-opacity="0.7"></line>
	
	<line x1="0" y1="-160" x2="240" y2="-160" stroke="gray" stroke-opacity="0.7"></line>
	
	<line x1="0" y1="-200" x2="240" y2="-200" stroke="gray" stroke-opacity="0.7"></line>
	
	<line x1="0" y1="-240" x2="240" y2="-240" stroke="gray" stroke-opacity="0.7"></line>
	
	<line x1="0" y1="-280" x2="240" y2="-280" stroke="gray" stroke-opacity="0.7"></line>
	
	<line x1="0" y1="-320" x2="240" y2="-320" stroke="gray" stroke-opacity="0.7"></line>
	
	<line x1="240" y1="0" x2="232" y2="-8" stroke="black"></line>
	<line x1="240" y1="0" x2="232" y2="8" stroke="black"></line>
	<line x1="0" y1="0" x2="240" y2="0" stroke="black" stroke-width="2"></line>
	<line x1="0" y1="-320" x2="-8" y2="-312" stroke="black"></line>
	<line x1="0" y1="-320" x2="8" y2="-312" stroke="black"></line>
	<line x1="0" y1="0" x2="0" y2="-320" stroke="black" stroke-width="2"></line>
	
	<line x1="0" y1="8" x2="0" y2="-8" stroke="black" stroke-width="2"></line>
	
	<line x1="40" y1="8" x2="40" y2="-8" stroke="black" stroke-width="2"></line>
	
	<line x1="80" y1="8" x2="80" y2="-8" stroke="black" stroke-width="2"></line>
	
	<line x1="120" y1="8" x2="120" y2="-8" stroke="black" stroke-width="2"></line>
	
	<line x1="160" y1="8" x2="160" y2="-8" stroke="black" stroke-width="2"></line>
	
	<line x1="200" y1="8" x2="200" y2="-8" stroke="black" stroke-width="2"></line>
	
	<line x1="-8" y1="0" x2="8" y2="0" stroke="black" stroke-width="2"></line>
	
	<line x1="-8" y1="-40" x2="8" y2="-40" stroke="black" stroke-width="2"></line>
	
	<line x1="-8" y1="-80" x2="8" y2="-80" stroke="black" stroke-width="2"></line>
	
	<line x1="-8" y1="-120" x2="8" y2="-120" stroke="black" stroke-width="2"></line>
	
	<line x1="-8" y1="-160" x2="8" y2="-160" stroke="black" stroke-width="2"></line>
	
	<line x1="-8" y1="-200" x2="8" y2="-200" stroke="black" stroke-width="2"></line>
	
	<line x1="-8" y1="-240" x2="8" y2="-240" stroke="black" stroke-width="2"></line>
	
	<line x1="-8" y1="-280" x2="8" y2="-280" stroke="black" stroke-width="2"></line>
	<line x1="240" y1="0" x2="232" y2="-8" stroke="black"></line>
	<line x1="240" y1="0" x2="232" y2="8" stroke="black"></line>
	<line x1="0" y1="0" x2="240" y2="0" stroke="black" stroke-width="2"></line>
	<line x1="0" y1="-320" x2="-8" y2="-312" stroke="black"></line>
	<line x1="0" y1="-320" x2="8" y2="-312" stroke="black"></line>
	<line x1="0" y1="0" x2="0" y2="-320" stroke="black" stroke-width="2"></line>
	
	<line x1="0" y1="8" x2="0" y2="-8" stroke="black" stroke-width="2"></line>
	
	<line x1="40" y1="8" x2="40" y2="-8" stroke="black" stroke-width="2"></line>
	
	<line x1="80" y1="8" x2="80" y2="-8" stroke="black" stroke-width="2"></line>
	
	<line x1="120" y1="8" x2="120" y2="-8" stroke="black" stroke-width="2"></line>
	
	<line x1="160" y1="8" x2="160" y2="-8" stroke="black" stroke-width="2"></line>
	
	<line x1="200" y1="8" x2="200" y2="-8" stroke="black" stroke-width="2"></line>
	
	<line x1="-8" y1="0" x2="8" y2="0" stroke="black" stroke-width="2"></line>
	
	<line x1="-8" y1="-40" x2="8" y2="-40" stroke="black" stroke-width="2"></line>
	
	<line x1="-8" y1="-80" x2="8" y2="-80" stroke="black" stroke-width="2"></line>
	
	<line x1="-8" y1="-120" x2="8" y2="-120" stroke="black" stroke-width="2"></line>
	
	<line x1="-8" y1="-160" x2="8" y2="-160" stroke="black" stroke-width="2"></line>
	
	<line x1="-8" y1="-200" x2="8" y2="-200" stroke="black" stroke-width="2"></line>
	
	<line x1="-8" y1="-240" x2="8" y2="-240" stroke="black" stroke-width="2"></line>
	
	<line x1="-8" y1="-280" x2="8" y2="-280" stroke="black" stroke-width="2"></line>
	
	
	
	<text x="40" y="24" text-anchor="middle" dominant-baseline="central" fill="black">1</text>
 
	<text x="80" y="24" text-anchor="middle" dominant-baseline="central" fill="black">2</text>
 
	<text x="120" y="24" text-anchor="middle" dominant-baseline="central" fill="black">3</text>
 
	<text x="160" y="24" text-anchor="middle" dominant-baseline="central" fill="black">4</text>
 
	<text x="200" y="24" text-anchor="middle" dominant-baseline="central" fill="black">5</text>
 
	<text x="240" y="24" text-anchor="middle" dominant-baseline="central" fill="black">6</text>
 
	<text x="40" y="24" text-anchor="middle" dominant-baseline="central" fill="black">1</text>
 
	<text x="80" y="24" text-anchor="middle" dominant-baseline="central" fill="black">2</text>
 
	<text x="120" y="24" text-anchor="middle" dominant-baseline="central" fill="black">3</text>
 
	<text x="160" y="24" text-anchor="middle" dominant-baseline="central" fill="black">4</text>
 
	<text x="200" y="24" text-anchor="middle" dominant-baseline="central" fill="black">5</text>
 
	<text x="240" y="24" text-anchor="middle" dominant-baseline="central" fill="black">6</text>
 
	
	<text x="-24" y="-40" text-anchor="middle" dominant-baseline="central" fill="black">1</text>
 
	<text x="-24" y="-80" text-anchor="middle" dominant-baseline="central" fill="black">2</text>
 
	<text x="-24" y="-120" text-anchor="middle" dominant-baseline="central" fill="black">3</text>
 
	<text x="-24" y="-160" text-anchor="middle" dominant-baseline="central" fill="black">4</text>
 
	<text x="-24" y="-200" text-anchor="middle" dominant-baseline="central" fill="black">5</text>
 
	<text x="-24" y="-240" text-anchor="middle" dominant-baseline="central" fill="black">6</text>
 
	<text x="-24" y="-280" text-anchor="middle" dominant-baseline="central" fill="black">7</text>
 
	<text x="-24" y="-320" text-anchor="middle" dominant-baseline="central" fill="black">8</text>
 
	<text x="-24" y="-40" text-anchor="middle" dominant-baseline="central" fill="black">1</text>
 
	<text x="-24" y="-80" text-anchor="middle" dominant-baseline="central" fill="black">2</text>
 
	<text x="-24" y="-120" text-anchor="middle" dominant-baseline="central" fill="black">3</text>
 
	<text x="-24" y="-160" text-anchor="middle" dominant-baseline="central" fill="black">4</text>
 
	<text x="-24" y="-200" text-anchor="middle" dominant-baseline="central" fill="black">5</text>
 
	<text x="-24" y="-240" text-anchor="middle" dominant-baseline="central" fill="black">6</text>
 
	<text x="-24" y="-280" text-anchor="middle" dominant-baseline="central" fill="black">7</text>
 
	<text x="-24" y="-320" text-anchor="middle" dominant-baseline="central" fill="black">8</text>
 
	<text x="248" y="-12" text-anchor="start" dominant-baseline="central" fill="black">Longueur AB</text>
 
	<text x="0" y="-332" text-anchor="start" dominant-baseline="central" fill="black"></text>
 
</svg>