<svg width="600" height="400" viewBox="-100 -350 600 400" xmlns="http://www.w3.org/2000/svg">
	
	<line x1="32" y1="-188" x2="48" y2="-172" stroke="blue"></line>
	<line x1="32" y1="-172" x2="48" y2="-188" stroke="blue"></line><line x1="72" y1="-288" x2="88" y2="-272" stroke="blue"></line>
	<line x1="72" y1="-272" x2="88" y2="-288" stroke="blue"></line><line x1="112" y1="-308" x2="128" y2="-292" stroke="blue"></line>
	<line x1="112" y1="-292" x2="128" y2="-308" stroke="blue"></line><line x1="152" y1="-248" x2="168" y2="-232" stroke="blue"></line>
	<line x1="152" y1="-232" x2="168" y2="-248" stroke="blue"></line><line x1="192" y1="-108" x2="208" y2="-92" stroke="blue"></line>
	<line x1="192" y1="-92" x2="208" y2="-108" stroke="blue"></line>
	
	
	
	<line x1="0" y1="0" x2="0" y2="-320" stroke="gray" stroke-opacity="0.7"></line>
	
	<line x1="40" y1="0" x2="40" y2="-320" stroke="gray" stroke-opacity="0.7"></line>
	
	<line x1="80" y1="0" x2="80" y2="-320" stroke="gray" stroke-opacity="0.7"></line>
	
	<line x1="120" y1="0" x2="120" y2="-320" stroke="gray" stroke-opacity="0.7"></line>
	
	<line x1="160" y1="0" x2="160" y2="-320" stroke="gray" stroke-opacity="0.7"></line>
	
	<line x1="200" y1="0" x2="200" y2="-320" stroke="gray" stroke-opacity="0.7"></line>
	
	<line x1="240" y1="0" x2="240" y2="-320" stroke="gray" stroke-opacity="0.7"></line>
	
	<line x1="0" y1="0" x2="240" y2="0" stroke="gray" stroke-opacity="0.7"></line>
	
	<line x1="0" y1="-40" x2="240" y2="-40" stroke="gray" stroke-opacity="0.7"></line>
	
	<line x1="0" y1="-80" x2="240" y2="-80" stroke="gray" stroke-opacity="0.7"></line>
	
	<line x1="0" y1="-120" x2="240" y2="-120" stroke="gray" stroke-opacity="0.7"></line>
	
	<line x1="0" y1="-160" x2="240" y2="-160" stroke="gray" stroke-opacity="0.7"></line>
	
	<line x1="0" y1="-200" x2="240" y2="-200" stroke="gray" stroke-opacity="0.7"></line>
	
	<line x1="0" y1="-240" x2="240" y2="-240" stroke="gray" stroke-opacity="0.7"></line>
	
	<line x1="0" y1="-280" x2="240" y2="-280" stroke="gray" stroke-opacity="0.7"></line>
	
	<line x1="0" y1="-320" x2="240" y2="-320" stroke="gray" stroke-opacity="0.7"></line>
	
	<line x1="240" y1="0" x2="232" y2="-8" stroke="black"></line>
	<line x1="240" y1="0" x2="232" y2="8" stroke="black"></line>
	<line x1="0" y1="0" x2="240" y2="0" stroke="black" stroke-width="2"></line>
	<line x1="0" y1="-320" x2="-8" y2="-312" stroke="black"></line>
	<line x1="0" y1="-320" x2="8" y2="-312" stroke="black"></line>
	<line x1="0" y1="0" x2="0" y2="-320" stroke="black" stroke-width="2"></line>
	
	<line x1="0" y1="8" x2="0" y2="-8" stroke="black" stroke-width="2"></line>
	
	<line x1="40" y1="8" x2="40" y2="-8" stroke="black" stroke-width="2"></line>
	
	<line x1="80" y1="8" x2="80" y2="-8" stroke="black" stroke-width="2"></line>
	
	<line x1="120" y1="8" x2="120" y2="-8" stroke="black" stroke-width="2"></line>
	
	<line x1="160" y1="8" x2="160" y2="-8" stroke="black" stroke-width="2"></line>
	
	<line x1="200" y1="8" x2="200" y2="-8" stroke="black" stroke-width="2"></line>
	
	<line x1="-8" y1="0" x2="8" y2="0" stroke="black" stroke-width="2"></line>
	
	<line x1="-8" y1="-40" x2="8" y2="-40" stroke="black" stroke-width="2"></line>
	
	<line x1="-8" y1="-80" x2="8" y2="-80" stroke="black" stroke-width="2"></line>
	
	<line x1="-8" y1="-120" x2="8" y2="-120" stroke="black" stroke-width="2"></line>
	
	<line x1="-8" y1="-160" x2="8" y2="-160" stroke="black" stroke-width="2"></line>
	
	<line x1="-8" y1="-200" x2="8" y2="-200" stroke="black" stroke-width="2"></line>
	
	<line x1="-8" y1="-240" x2="8" y2="-240" stroke="black" stroke-width="2"></line>
	
	<line x1="-8" y1="-280" x2="8" y2="-280" stroke="black" stroke-width="2"></line>
	
	
	
	<text x="40" y="24" text-anchor="middle" dominant-baseline="central" fill="black">1</text>
 
	<text x="80" y="24" text-anchor="middle" dominant-baseline="central" fill="black">2</text>
 
	<text x="120" y="24" text-anchor="middle" dominant-baseline="central" fill="black">3</text>
 
	<text x="160" y="24" text-anchor="middle" dominant-baseline="central" fill="black">4</text>
 
	<text x="200" y="24" text-anchor="middle" dominant-baseline="central" fill="black">5</text>
 
	<text x="240" y="24" text-anchor="middle" dominant-baseline="central" fill="black">6</text>
 
	
	<text x="-24" y="-40" text-anchor="middle" dominant-baseline="central" fill="black">1</text>
 
	<text x="-24" y="-80" text-anchor="middle" dominant-baseline="central" fill="black">2</text>
 
	<text x="-24" y="-120" text-anchor="middle" dominant-baseline="central" fill="black">3</text>
 
	<text x="-24" y="-160" text-anchor="middle" dominant-baseline="central" fill="black">4</text>
 
	<text x="-24" y="-200" text-anchor="middle" dominant-baseline="central" fill="black">5</text>
 
	<text x="-24" y="-240" text-anchor="middle" dominant-baseline="central" fill="black">6</text>
 
	<text x="-24" y="-280" text-anchor="middle" dominant-baseline="central" fill="black">7</text>
 
	<text x="-24" y="-320" text-anchor="middle" dominant-baseline="central" fill="black">8</text>
 
	<text x="248" y="-12" text-anchor="start" dominant-baseline="central" fill="black">Longueur AB</text>
 
	<text x="0" y="-332" text-anchor="start" dominant-baseline="central" fill="black">Aire de ABCD</text>
 
	
	
	<line x1="0" y1="0" x2="0" y2="-320" stroke="gray" stroke-opacity="0.7"></line>
	
	<line x1="40" y1="0" x2="40" y2="-320" stroke="gray" stroke-opacity="0.7"></line>
	
	<line x1="80" y1="0" x2="80" y2="-320" stroke="gray" stroke-opacity="0.7"></line>
	
	<line x1="120" y1="0" x2="120" y2="-320" stroke="gray" stroke-opacity="0.7"></line>
	
	<line x1="160" y1="0" x2="160" y2="-320" stroke="gray" stroke-opacity="0.7"></line>
	
	<line x1="200" y1="0" x2="200" y2="-320" stroke="gray" stroke-opacity="0.7"></line>
	
	<line x1="240" y1="0" x2="240" y2="-320" stroke="gray" stroke-opacity="0.7"></line>
	
	<line x1="0" y1="0" x2="240" y2="0" stroke="gray" stroke-opacity="0.7"></line>
	
	<line x1="0" y1="-40" x2="240" y2="-40" stroke="gray" stroke-opacity="0.7"></line>
	
	<line x1="0" y1="-80" x2="240" y2="-80" stroke="gray" stroke-opacity="0.7"></line>
	
	<line x1="0" y1="-120" x2="240" y2="-120" stroke="gray" stroke-opacity="0.7"></line>
	
	<line x1="0" y1="-160" x2="240" y2="-160" stroke="gray" stroke-opacity="0.7"></line>
	
	<line x1="0" y1="-200" x2="240" y2="-200" stroke="gray" stroke-opacity="0.7"></line>
	
	<line x1="0" y1="-240" x2="240" y2="-240" stroke="gray" stroke-opacity="0.7"></line>
	
	<line x1="0" y1="-280" x2="240" y2="-280" stroke="gray" stroke-opacity="0.7"></line>
	
	<line x1="0" y1="-320" x2="240" y2="-320" stroke="gray" stroke-opacity="0.7"></line>
	
	<line x1="0" y1="0" x2="0" y2="-320" stroke="gray" stroke-opacity="0.7"></line>
	
	<line x1="40" y1="0" x2="40" y2="-320" stroke="gray" stroke-opacity="0.7"></line>
	
	<line x1="80" y1="0" x2="80" y2="-320" stroke="gray" stroke-opacity="0.7"></line>
	
	<line x1="120" y1="0" x2="120" y2="-320" stroke="gray" stroke-opacity="0.7"></line>
	
	<line x1="160" y1="0" x2="160" y2="-320" stroke="gray" stroke-opacity="0.7"></line>
	
	<line x1="200" y1="0" x2="200" y2="-320" stroke="gray" stroke-opacity="0.7"></line>
	
	<line x1="240" y1="0" x2="240" y2="-320" stroke="gray" stroke-opacity="0.7"></line>
	
	<line x1="0" y1="0" x2="240" y2="0" stroke="gray" stroke-opacity="0.7"></line>
	
	<line x1="0" y1="-40" x2="240" y2="-40" stroke="gray" stroke-opacity="0.7"></line>
	
	<line x1="0" y1="-80" x2="240" y2="-80" stroke="gray" stroke-opacity="0.7"></line>
	
	<line x1="0" y1="-120" x2="240" y2="-120" stroke="gray" stroke-opacity="0.7"></line>
	
	<line x1="0" y1="-160" x2="240" y2="-160" stroke="gray" stroke-opacity="0.7"></line>
	
	<line x1="0" y1="-200" x2="240" y2="-200" stroke="gray" stroke-opacity="0.7"></line>
	
	<line x1="0" y1="-240" x2="240" y2="-240" stroke="gray" stroke-opacity="0.7"></line>
	
	<line x1="0" y1="-280" x2="240" y2="-280" stroke="gray" stroke-opacity="0.7"></line>
	
	<line x1="0" y1="-320" x2="240" y2="-320" stroke="gray" stroke-opacity="0.7"></line>
	
	<line x1="240" y1="0" x2="232" y2="-8" stroke="black"></line>
	<line x1="240" y1="0" x2="232" y2="8" stroke="black"></line>
	<line x1="0" y1="0" x2="240" y2="0" stroke="black" stroke-width="2"></line>
	<line x1="0" y1="-320" x2="-8" y2="-312" stroke="black"></line>
	<line x1="0" y1="-320" x2="8" y2="-312" stroke="black"></line>
	<line x1="0" y1="0" x2="0" y2="-320" stroke="black" stroke-width="2"></line>
	
	<line x1="0" y1="8" x2="0" y2="-8" stroke="black" stroke-width="2"></line>
	
	<line x1="40" y1="8" x2="40" y2="-8" stroke="black" stroke-width="2"></line>
	
	<line x1="80" y1="8" x2="80" y2="-8" stroke="black" stroke-width="2"></line>
	
	<line x1="120" y1="8" x2="120" y2="-8" stroke="black" stroke-width="2"></line>
	
	<line x1="160" y1="8" x2="160" y2="-8" stroke="black" stroke-width="2"></line>
	
	<line x1="200" y1="8" x2="200" y2="-8" stroke="black" stroke-width="2"></line>
	
	<line x1="-8" y1="0" x2="8" y2="0" stroke="black" stroke-width="2"></line>
	
	<line x1="-8" y1="-40" x2="8" y2="-40" stroke="black" stroke-width="2"></line>
	
	<line x1="-8" y1="-80" x2="8" y2="-80" stroke="black" stroke-width="2"></line>
	
	<line x1="-8" y1="-120" x2="8" y2="-120" stroke="black" stroke-width="2"></line>
	
	<line x1="-8" y1="-160" x2="8" y2="-160" stroke="black" stroke-width="2"></line>
	
	<line x1="-8" y1="-200" x2="8" y2="-200" stroke="black" stroke-width="2"></line>
	
	<line x1="-8" y1="-240" x2="8" y2="-240" stroke="black" stroke-width="2"></line>
	
	<line x1="-8" y1="-280" x2="8" y2="-280" stroke="black" stroke-width="2"></line>
	<line x1="240" y1="0" x2="232" y2="-8" stroke="black"></line>
	<line x1="240" y1="0" x2="232" y2="8" stroke="black"></line>
	<line x1="0" y1="0" x2="240" y2="0" stroke="black" stroke-width="2"></line>
	<line x1="0" y1="-320" x2="-8" y2="-312" stroke="black"></line>
	<line x1="0" y1="-320" x2="8" y2="-312" stroke="black"></line>
	<line x1="0" y1="0" x2="0" y2="-320" stroke="black" stroke-width="2"></line>
	
	<line x1="0" y1="8" x2="0" y2="-8" stroke="black" stroke-width="2"></line>
	
	<line x1="40" y1="8" x2="40" y2="-8" stroke="black" stroke-width="2"></line>
	
	<line x1="80" y1="8" x2="80" y2="-8" stroke="black" stroke-width="2"></line>
	
	<line x1="120" y1="8" x2="120" y2="-8" stroke="black" stroke-width="2"></line>
	
	<line x1="160" y1="8" x2="160" y2="-8" stroke="black" stroke-width="2"></line>
	
	<line x1="200" y1="8" x2="200" y2="-8" stroke="black" stroke-width="2"></line>
	
	<line x1="-8" y1="0" x2="8" y2="0" stroke="black" stroke-width="2"></line>
	
	<line x1="-8" y1="-40" x2="8" y2="-40" stroke="black" stroke-width="2"></line>
	
	<line x1="-8" y1="-80" x2="8" y2="-80" stroke="black" stroke-width="2"></line>
	
	<line x1="-8" y1="-120" x2="8" y2="-120" stroke="black" stroke-width="2"></line>
	
	<line x1="-8" y1="-160" x2="8" y2="-160" stroke="black" stroke-width="2"></line>
	
	<line x1="-8" y1="-200" x2="8" y2="-200" stroke="black" stroke-width="2"></line>
	
	<line x1="-8" y1="-240" x2="8" y2="-240" stroke="black" stroke-width="2"></line>
	
	<line x1="-8" y1="-280" x2="8" y2="-280" stroke="black" stroke-width="2"></line>
	
	
	
	<text x="40" y="24" text-anchor="middle" dominant-baseline="central" fill="black">1</text>
 
	<text x="80" y="24" text-anchor="middle" dominant-baseline="central" fill="black">2</text>
 
	<text x="120" y="24" text-anchor="middle" dominant-baseline="central" fill="black">3</text>
 
	<text x="160" y="24" text-anchor="middle" dominant-baseline="central" fill="black">4</text>
 
	<text x="200" y="24" text-anchor="middle" dominant-baseline="central" fill="black">5</text>
 
	<text x="240" y="24" text-anchor="middle" dominant-baseline="central" fill="black">6</text>
 
	<text x="40" y="24" text-anchor="middle" dominant-baseline="central" fill="black">1</text>
 
	<text x="80" y="24" text-anchor="middle" dominant-baseline="central" fill="black">2</text>
 
	<text x="120" y="24" text-anchor="middle" dominant-baseline="central" fill="black">3</text>
 
	<text x="160" y="24" text-anchor="middle" dominant-baseline="central" fill="black">4</text>
 
	<text x="200" y="24" text-anchor="middle" dominant-baseline="central" fill="black">5</text>
 
	<text x="240" y="24" text-anchor="middle" dominant-baseline="central" fill="black">6</text>
 
	
	<text x="-24" y="-40" text-anchor="middle" dominant-baseline="central" fill="black">1</text>
 
	<text x="-24" y="-80" text-anchor="middle" dominant-baseline="central" fill="black">2</text>
 
	<text x="-24" y="-120" text-anchor="middle" dominant-baseline="central" fill="black">3</text>
 
	<text x="-24" y="-160" text-anchor="middle" dominant-baseline="central" fill="black">4</text>
 
	<text x="-24" y="-200" text-anchor="middle" dominant-baseline="central" fill="black">5</text>
 
	<text x="-24" y="-240" text-anchor="middle" dominant-baseline="central" fill="black">6</text>
 
	<text x="-24" y="-280" text-anchor="middle" dominant-baseline="central" fill="black">7</text>
 
	<text x="-24" y="-320" text-anchor="middle" dominant-baseline="central" fill="black">8</text>
 
	<text x="-24" y="-40" text-anchor="middle" dominant-baseline="central" fill="black">1</text>
 
	<text x="-24" y="-80" text-anchor="middle" dominant-baseline="central" fill="black">2</text>
 
	<text x="-24" y="-120" text-anchor="middle" dominant-baseline="central" fill="black">3</text>
 
	<text x="-24" y="-160" text-anchor="middle" dominant-baseline="central" fill="black">4</text>
 
	<text x="-24" y="-200" text-anchor="middle" dominant-baseline="central" fill="black">5</text>
 
	<text x="-24" y="-240" text-anchor="middle" dominant-baseline="central" fill="black">6</text>
 
	<text x="-24" y="-280" text-anchor="middle" dominant-baseline="central" fill="black">7</text>
 
	<text x="-24" y="-320" text-anchor="middle" dominant-baseline="central" fill="black">8</text>
 
	<text x="248" y="-12" text-anchor="start" dominant-baseline="central" fill="black">Longueur AB</text>
 
	<text x="0" y="-332" text-anchor="start" dominant-baseline="central" fill="black">Aire de ABCD</text>
 
	<line x1="-8" y1="-8" x2="8" y2="8" stroke="blue"></line>
	<line x1="-8" y1="8" x2="8" y2="-8" stroke="blue"></line>
	<line x1="-4" y1="-29.6" x2="12" y2="-13.6" stroke="blue"></line>
	<line x1="-4" y1="-13.6" x2="12" y2="-29.6" stroke="blue"></line>
	<line x1="0" y1="-50.4" x2="16" y2="-34.4" stroke="blue"></line>
	<line x1="0" y1="-34.4" x2="16" y2="-50.4" stroke="blue"></line>
	<line x1="4" y1="-70.4" x2="20" y2="-54.4" stroke="blue"></line>
	<line x1="4" y1="-54.4" x2="20" y2="-70.4" stroke="blue"></line>
	<line x1="8" y1="-89.6" x2="24" y2="-73.6" stroke="blue"></line>
	<line x1="8" y1="-73.6" x2="24" y2="-89.6" stroke="blue"></line>
	<line x1="12" y1="-108" x2="28" y2="-92" stroke="blue"></line>
	<line x1="12" y1="-92" x2="28" y2="-108" stroke="blue"></line>
	<line x1="16" y1="-125.6" x2="32" y2="-109.6" stroke="blue"></line>
	<line x1="16" y1="-109.6" x2="32" y2="-125.6" stroke="blue"></line>
	<line x1="20" y1="-142.4" x2="36" y2="-126.4" stroke="blue"></line>
	<line x1="20" y1="-126.4" x2="36" y2="-142.4" stroke="blue"></line>
	<line x1="24" y1="-158.4" x2="40" y2="-142.4" stroke="blue"></line>
	<line x1="24" y1="-142.4" x2="40" y2="-158.4" stroke="blue"></line>
	<line x1="28" y1="-173.6" x2="44" y2="-157.6" stroke="blue"></line>
	<line x1="28" y1="-157.6" x2="44" y2="-173.6" stroke="blue"></line>
	<line x1="32" y1="-188" x2="48" y2="-172" stroke="blue"></line>
	<line x1="32" y1="-172" x2="48" y2="-188" stroke="blue"></line>
	<line x1="36" y1="-201.6" x2="52" y2="-185.6" stroke="blue"></line>
	<line x1="36" y1="-185.6" x2="52" y2="-201.6" stroke="blue"></line>
	<line x1="40" y1="-214.4" x2="56" y2="-198.4" stroke="blue"></line>
	<line x1="40" y1="-198.4" x2="56" y2="-214.4" stroke="blue"></line>
	<line x1="44" y1="-226.4" x2="60" y2="-210.4" stroke="blue"></line>
	<line x1="44" y1="-210.4" x2="60" y2="-226.4" stroke="blue"></line>
	<line x1="48" y1="-237.6" x2="64" y2="-221.6" stroke="blue"></line>
	<line x1="48" y1="-221.6" x2="64" y2="-237.6" stroke="blue"></line>
	<line x1="52" y1="-248" x2="68" y2="-232" stroke="blue"></line>
	<line x1="52" y1="-232" x2="68" y2="-248" stroke="blue"></line>
	<line x1="56" y1="-257.6" x2="72" y2="-241.6" stroke="blue"></line>
	<line x1="56" y1="-241.6" x2="72" y2="-257.6" stroke="blue"></line>
	<line x1="60" y1="-266.4" x2="76" y2="-250.4" stroke="blue"></line>
	<line x1="60" y1="-250.4" x2="76" y2="-266.4" stroke="blue"></line>
	<line x1="64" y1="-274.4" x2="80" y2="-258.4" stroke="blue"></line>
	<line x1="64" y1="-258.4" x2="80" y2="-274.4" stroke="blue"></line>
	<line x1="68" y1="-281.6" x2="84" y2="-265.6" stroke="blue"></line>
	<line x1="68" y1="-265.6" x2="84" y2="-281.6" stroke="blue"></line>
	<line x1="72" y1="-288" x2="88" y2="-272" stroke="blue"></line>
	<line x1="72" y1="-272" x2="88" y2="-288" stroke="blue"></line>
	<line x1="76" y1="-293.6" x2="92" y2="-277.6" stroke="blue"></line>
	<line x1="76" y1="-277.6" x2="92" y2="-293.6" stroke="blue"></line>
	<line x1="80" y1="-298.4" x2="96" y2="-282.4" stroke="blue"></line>
	<line x1="80" y1="-282.4" x2="96" y2="-298.4" stroke="blue"></line>
	<line x1="84" y1="-302.4" x2="100" y2="-286.4" stroke="blue"></line>
	<line x1="84" y1="-286.4" x2="100" y2="-302.4" stroke="blue"></line>
	<line x1="88" y1="-305.6" x2="104" y2="-289.6" stroke="blue"></line>
	<line x1="88" y1="-289.6" x2="104" y2="-305.6" stroke="blue"></line>
	<line x1="92" y1="-308" x2="108" y2="-292" stroke="blue"></line>
	<line x1="92" y1="-292" x2="108" y2="-308" stroke="blue"></line>
	<line x1="96" y1="-309.6" x2="112" y2="-293.6" stroke="blue"></line>
	<line x1="96" y1="-293.6" x2="112" y2="-309.6" stroke="blue"></line>
	<line x1="100" y1="-310.4" x2="116" y2="-294.4" stroke="blue"></line>
	<line x1="100" y1="-294.4" x2="116" y2="-310.4" stroke="blue"></line>
	<line x1="104" y1="-310.4" x2="120" y2="-294.4" stroke="blue"></line>
	<line x1="104" y1="-294.4" x2="120" y2="-310.4" stroke="blue"></line>
	<line x1="108" y1="-309.6" x2="124" y2="-293.6" stroke="blue"></line>
	<line x1="108" y1="-293.6" x2="124" y2="-309.6" stroke="blue"></line>
	<line x1="112" y1="-308" x2="128" y2="-292" stroke="blue"></line>
	<line x1="112" y1="-292" x2="128" y2="-308" stroke="blue"></line>
	<line x1="116" y1="-305.6" x2="132" y2="-289.6" stroke="blue"></line>
	<line x1="116" y1="-289.6" x2="132" y2="-305.6" stroke="blue"></line>
	<line x1="120" y1="-302.4" x2="136" y2="-286.4" stroke="blue"></line>
	<line x1="120" y1="-286.4" x2="136" y2="-302.4" stroke="blue"></line>
	<line x1="124" y1="-298.4" x2="140" y2="-282.4" stroke="blue"></line>
	<line x1="124" y1="-282.4" x2="140" y2="-298.4" stroke="blue"></line>
	<line x1="128" y1="-293.6" x2="144" y2="-277.6" stroke="blue"></line>
	<line x1="128" y1="-277.6" x2="144" y2="-293.6" stroke="blue"></line>
	<line x1="132" y1="-288" x2="148" y2="-272" stroke="blue"></line>
	<line x1="132" y1="-272" x2="148" y2="-288" stroke="blue"></line>
	<line x1="136" y1="-281.6" x2="152" y2="-265.6" stroke="blue"></line>
	<line x1="136" y1="-265.6" x2="152" y2="-281.6" stroke="blue"></line>
	<line x1="140" y1="-274.4" x2="156" y2="-258.4" stroke="blue"></line>
	<line x1="140" y1="-258.4" x2="156" y2="-274.4" stroke="blue"></line>
	<line x1="144" y1="-266.4" x2="160" y2="-250.4" stroke="blue"></line>
	<line x1="144" y1="-250.4" x2="160" y2="-266.4" stroke="blue"></line>
	<line x1="148" y1="-257.6" x2="164" y2="-241.6" stroke="blue"></line>
	<line x1="148" y1="-241.6" x2="164" y2="-257.6" stroke="blue"></line>
	<line x1="152" y1="-248" x2="168" y2="-232" stroke="blue"></line>
	<line x1="152" y1="-232" x2="168" y2="-248" stroke="blue"></line>
	<line x1="156" y1="-237.6" x2="172" y2="-221.6" stroke="blue"></line>
	<line x1="156" y1="-221.6" x2="172" y2="-237.6" stroke="blue"></line>
	<line x1="160" y1="-226.4" x2="176" y2="-210.4" stroke="blue"></line>
	<line x1="160" y1="-210.4" x2="176" y2="-226.4" stroke="blue"></line>
	<line x1="164" y1="-214.4" x2="180" y2="-198.4" stroke="blue"></line>
	<line x1="164" y1="-198.4" x2="180" y2="-214.4" stroke="blue"></line>
	<line x1="168" y1="-201.6" x2="184" y2="-185.6" stroke="blue"></line>
	<line x1="168" y1="-185.6" x2="184" y2="-201.6" stroke="blue"></line>
	<line x1="172" y1="-188" x2="188" y2="-172" stroke="blue"></line>
	<line x1="172" y1="-172" x2="188" y2="-188" stroke="blue"></line>
	<line x1="176" y1="-173.6" x2="192" y2="-157.6" stroke="blue"></line>
	<line x1="176" y1="-157.6" x2="192" y2="-173.6" stroke="blue"></line>
	<line x1="180" y1="-158.4" x2="196" y2="-142.4" stroke="blue"></line>
	<line x1="180" y1="-142.4" x2="196" y2="-158.4" stroke="blue"></line>
	<line x1="184" y1="-142.4" x2="200" y2="-126.4" stroke="blue"></line>
	<line x1="184" y1="-126.4" x2="200" y2="-142.4" stroke="blue"></line>
	<line x1="188" y1="-125.6" x2="204" y2="-109.6" stroke="blue"></line>
	<line x1="188" y1="-109.6" x2="204" y2="-125.6" stroke="blue"></line>
	<line x1="192" y1="-108" x2="208" y2="-92" stroke="blue"></line>
	<line x1="192" y1="-92" x2="208" y2="-108" stroke="blue"></line>
	<line x1="196" y1="-89.6" x2="212" y2="-73.6" stroke="blue"></line>
	<line x1="196" y1="-73.6" x2="212" y2="-89.6" stroke="blue"></line>
	<line x1="200" y1="-70.4" x2="216" y2="-54.4" stroke="blue"></line>
	<line x1="200" y1="-54.4" x2="216" y2="-70.4" stroke="blue"></line>
	<line x1="204" y1="-50.4" x2="220" y2="-34.4" stroke="blue"></line>
	<line x1="204" y1="-34.4" x2="220" y2="-50.4" stroke="blue"></line>
	<line x1="208" y1="-29.6" x2="224" y2="-13.6" stroke="blue"></line>
	<line x1="208" y1="-13.6" x2="224" y2="-29.6" stroke="blue"></line>
	<line x1="212" y1="-8" x2="228" y2="8" stroke="blue"></line>
	<line x1="212" y1="8" x2="228" y2="-8" stroke="blue"></line>
</svg>