<svg width="600" height="400" viewBox="-100 -350 600 400" xmlns="http://www.w3.org/2000/svg">
	
	<line x1="32" y1="-188" x2="48" y2="-172" stroke="blue"></line>
	<line x1="32" y1="-172" x2="48" y2="-188" stroke="blue"></line><line x1="72" y1="-288" x2="88" y2="-272" stroke="blue"></line>
	<line x1="72" y1="-272" x2="88" y2="-288" stroke="blue"></line><line x1="112" y1="-308" x2="128" y2="-292" stroke="blue"></line>
	<line x1="112" y1="-292" x2="128" y2="-308" stroke="blue"></line><line x1="152" y1="-248" x2="168" y2="-232" stroke="blue"></line>
	<line x1="152" y1="-232" x2="168" y2="-248" stroke="blue"></line><line x1="192" y1="-108" x2="208" y2="-92" stroke="blue"></line>
	<line x1="192" y1="-92" x2="208" y2="-108" stroke="blue"></line>
	
	
	
	<line x1="0" y1="0" x2="0" y2="-320" stroke="gray" stroke-opacity="0.7"></line>
	
	<line x1="40" y1="0" x2="40" y2="-320" stroke="gray" stroke-opacity="0.7"></line>
	
	<line x1="80" y1="0" x2="80" y2="-320" stroke="gray" stroke-opacity="0.7"></line>
	
	<line x1="120" y1="0" x2="120" y2="-320" stroke="gray" stroke-opacity="0.7"></line>
	
	<line x1="160" y1="0" x2="160" y2="-320" stroke="gray" stroke-opacity="0.7"></line>
	
	<line x1="200" y1="0" x2="200" y2="-320" stroke="gray" stroke-opacity="0.7"></line>
	
	<line x1="240" y1="0" x2="240" y2="-320" stroke="gray" stroke-opacity="0.7"></line>
	
	<line x1="0" y1="0" x2="240" y2="0" stroke="gray" stroke-opacity="0.7"></line>
	
	<line x1="0" y1="-40" x2="240" y2="-40" stroke="gray" stroke-opacity="0.7"></line>
	
	<line x1="0" y1="-80" x2="240" y2="-80" stroke="gray" stroke-opacity="0.7"></line>
	
	<line x1="0" y1="-120" x2="240" y2="-120" stroke="gray" stroke-opacity="0.7"></line>
	
	<line x1="0" y1="-160" x2="240" y2="-160" stroke="gray" stroke-opacity="0.7"></line>
	
	<line x1="0" y1="-200" x2="240" y2="-200" stroke="gray" stroke-opacity="0.7"></line>
	
	<line x1="0" y1="-240" x2="240" y2="-240" stroke="gray" stroke-opacity="0.7"></line>
	
	<line x1="0" y1="-280" x2="240" y2="-280" stroke="gray" stroke-opacity="0.7"></line>
	
	<line x1="0" y1="-320" x2="240" y2="-320" stroke="gray" stroke-opacity="0.7"></line>
	
	<line x1="240" y1="0" x2="232" y2="-8" stroke="black"></line>
	<line x1="240" y1="0" x2="232" y2="8" stroke="black"></line>
	<line x1="0" y1="0" x2="240" y2="0" stroke="black" stroke-width="2"></line>
	<line x1="0" y1="-320" x2="-8" y2="-312" stroke="black"></line>
	<line x1="0" y1="-320" x2="8" y2="-312" stroke="black"></line>
	<line x1="0" y1="0" x2="0" y2="-320" stroke="black" stroke-width="2"></line>
	
	<line x1="0" y1="8" x2="0" y2="-8" stroke="black" stroke-width="2"></line>
	
	<line x1="40" y1="8" x2="40" y2="-8" stroke="black" stroke-width="2"></line>
	
	<line x1="80" y1="8" x2="80" y2="-8" stroke="black" stroke-width="2"></line>
	
	<line x1="120" y1="8" x2="120" y2="-8" stroke="black" stroke-width="2"></line>
	
	<line x1="160" y1="8" x2="160" y2="-8" stroke="black" stroke-width="2"></line>
	
	<line x1="200" y1="8" x2="200" y2="-8" stroke="black" stroke-width="2"></line>
	
	<line x1="-8" y1="0" x2="8" y2="0" stroke="black" stroke-width="2"></line>
	
	<line x1="-8" y1="-40" x2="8" y2="-40" stroke="black" stroke-width="2"></line>
	
	<line x1="-8" y1="-80" x2="8" y2="-80" stroke="black" stroke-width="2"></line>
	
	<line x1="-8" y1="-120" x2="8" y2="-120" stroke="black" stroke-width="2"></line>
	
	<line x1="-8" y1="-160" x2="8" y2="-160" stroke="black" stroke-width="2"></line>
	
	<line x1="-8" y1="-200" x2="8" y2="-200" stroke="black" stroke-width="2"></line>
	
	<line x1="-8" y1="-240" x2="8" y2="-240" stroke="black" stroke-width="2"></line>
	
	<line x1="-8" y1="-280" x2="8" y2="-280" stroke="black" stroke-width="2"></line>
	
	
	
	<text x="40" y="24" text-anchor="middle" dominant-baseline="central" fill="black">1</text>
 
	<text x="80" y="24" text-anchor="middle" dominant-baseline="central" fill="black">2</text>
 
	<text x="120" y="24" text-anchor="middle" dominant-baseline="central" fill="black">3</text>
 
	<text x="160" y="24" text-anchor="middle" dominant-baseline="central" fill="black">4</text>
 
	<text x="200" y="24" text-anchor="middle" dominant-baseline="central" fill="black">5</text>
 
	<text x="240" y="24" text-anchor="middle" dominant-baseline="central" fill="black">6</text>
 
	
	<text x="-24" y="-40" text-anchor="middle" dominant-baseline="central" fill="black">1</text>
 
	<text x="-24" y="-80" text-anchor="middle" dominant-baseline="central" fill="black">2</text>
 
	<text x="-24" y="-120" text-anchor="middle" dominant-baseline="central" fill="black">3</text>
 
	<text x="-24" y="-160" text-anchor="middle" dominant-baseline="central" fill="black">4</text>
 
	<text x="-24" y="-200" text-anchor="middle" dominant-baseline="central" fill="black">5</text>
 
	<text x="-24" y="-240" text-anchor="middle" dominant-baseline="central" fill="black">6</text>
 
	<text x="-24" y="-280" text-anchor="middle" dominant-baseline="central" fill="black">7</text>
 
	<text x="-24" y="-320" text-anchor="middle" dominant-baseline="central" fill="black">8</text>
 
	<text x="248" y="-12" text-anchor="start" dominant-baseline="central" fill="black">Longueur AB</text>
 
	<text x="0" y="-332" text-anchor="start" dominant-baseline="central" fill="black">Aire de ABCD</text>
 
	
	
	<line x1="0" y1="0" x2="0" y2="-320" stroke="gray" stroke-opacity="0.7"></line>
	
	<line x1="40" y1="0" x2="40" y2="-320" stroke="gray" stroke-opacity="0.7"></line>
	
	<line x1="80" y1="0" x2="80" y2="-320" stroke="gray" stroke-opacity="0.7"></line>
	
	<line x1="120" y1="0" x2="120" y2="-320" stroke="gray" stroke-opacity="0.7"></line>
	
	<line x1="160" y1="0" x2="160" y2="-320" stroke="gray" stroke-opacity="0.7"></line>
	
	<line x1="200" y1="0" x2="200" y2="-320" stroke="gray" stroke-opacity="0.7"></line>
	
	<line x1="240" y1="0" x2="240" y2="-320" stroke="gray" stroke-opacity="0.7"></line>
	
	<line x1="0" y1="0" x2="240" y2="0" stroke="gray" stroke-opacity="0.7"></line>
	
	<line x1="0" y1="-40" x2="240" y2="-40" stroke="gray" stroke-opacity="0.7"></line>
	
	<line x1="0" y1="-80" x2="240" y2="-80" stroke="gray" stroke-opacity="0.7"></line>
	
	<line x1="0" y1="-120" x2="240" y2="-120" stroke="gray" stroke-opacity="0.7"></line>
	
	<line x1="0" y1="-160" x2="240" y2="-160" stroke="gray" stroke-opacity="0.7"></line>
	
	<line x1="0" y1="-200" x2="240" y2="-200" stroke="gray" stroke-opacity="0.7"></line>
	
	<line x1="0" y1="-240" x2="240" y2="-240" stroke="gray" stroke-opacity="0.7"></line>
	
	<line x1="0" y1="-280" x2="240" y2="-280" stroke="gray" stroke-opacity="0.7"></line>
	
	<line x1="0" y1="-320" x2="240" y2="-320" stroke="gray" stroke-opacity="0.7"></line>
	
	<line x1="0" y1="0" x2="0" y2="-320" stroke="gray" stroke-opacity="0.7"></line>
	
	<line x1="40" y1="0" x2="40" y2="-320" stroke="gray" stroke-opacity="0.7"></line>
	
	<line x1="80" y1="0" x2="80" y2="-320" stroke="gray" stroke-opacity="0.7"></line>
	
	<line x1="120" y1="0" x2="120" y2="-320" stroke="gray" stroke-opacity="0.7"></line>
	
	<line x1="160" y1="0" x2="160" y2="-320" stroke="gray" stroke-opacity="0.7"></line>
	
	<line x1="200" y1="0" x2="200" y2="-320" stroke="gray" stroke-opacity="0.7"></line>
	
	<line x1="240" y1="0" x2="240" y2="-320" stroke="gray" stroke-opacity="0.7"></line>
	
	<line x1="0" y1="0" x2="240" y2="0" stroke="gray" stroke-opacity="0.7"></line>
	
	<line x1="0" y1="-40" x2="240" y2="-40" stroke="gray" stroke-opacity="0.7"></line>
	
	<line x1="0" y1="-80" x2="240" y2="-80" stroke="gray" stroke-opacity="0.7"></line>
	
	<line x1="0" y1="-120" x2="240" y2="-120" stroke="gray" stroke-opacity="0.7"></line>
	
	<line x1="0" y1="-160" x2="240" y2="-160" stroke="gray" stroke-opacity="0.7"></line>
	
	<line x1="0" y1="-200" x2="240" y2="-200" stroke="gray" stroke-opacity="0.7"></line>
	
	<line x1="0" y1="-240" x2="240" y2="-240" stroke="gray" stroke-opacity="0.7"></line>
	
	<line x1="0" y1="-280" x2="240" y2="-280" stroke="gray" stroke-opacity="0.7"></line>
	
	<line x1="0" y1="-320" x2="240" y2="-320" stroke="gray" stroke-opacity="0.7"></line>
	
	<line x1="240" y1="0" x2="232" y2="-8" stroke="black"></line>
	<line x1="240" y1="0" x2="232" y2="8" stroke="black"></line>
	<line x1="0" y1="0" x2="240" y2="0" stroke="black" stroke-width="2"></line>
	<line x1="0" y1="-320" x2="-8" y2="-312" stroke="black"></line>
	<line x1="0" y1="-320" x2="8" y2="-312" stroke="black"></line>
	<line x1="0" y1="0" x2="0" y2="-320" stroke="black" stroke-width="2"></line>
	
	<line x1="0" y1="8" x2="0" y2="-8" stroke="black" stroke-width="2"></line>
	
	<line x1="40" y1="8" x2="40" y2="-8" stroke="black" stroke-width="2"></line>
	
	<line x1="80" y1="8" x2="80" y2="-8" stroke="black" stroke-width="2"></line>
	
	<line x1="120" y1="8" x2="120" y2="-8" stroke="black" stroke-width="2"></line>
	
	<line x1="160" y1="8" x2="160" y2="-8" stroke="black" stroke-width="2"></line>
	
	<line x1="200" y1="8" x2="200" y2="-8" stroke="black" stroke-width="2"></line>
	
	<line x1="-8" y1="0" x2="8" y2="0" stroke="black" stroke-width="2"></line>
	
	<line x1="-8" y1="-40" x2="8" y2="-40" stroke="black" stroke-width="2"></line>
	
	<line x1="-8" y1="-80" x2="8" y2="-80" stroke="black" stroke-width="2"></line>
	
	<line x1="-8" y1="-120" x2="8" y2="-120" stroke="black" stroke-width="2"></line>
	
	<line x1="-8" y1="-160" x2="8" y2="-160" stroke="black" stroke-width="2"></line>
	
	<line x1="-8" y1="-200" x2="8" y2="-200" stroke="black" stroke-width="2"></line>
	
	<line x1="-8" y1="-240" x2="8" y2="-240" stroke="black" stroke-width="2"></line>
	
	<line x1="-8" y1="-280" x2="8" y2="-280" stroke="black" stroke-width="2"></line>
	<line x1="240" y1="0" x2="232" y2="-8" stroke="black"></line>
	<line x1="240" y1="0" x2="232" y2="8" stroke="black"></line>
	<line x1="0" y1="0" x2="240" y2="0" stroke="black" stroke-width="2"></line>
	<line x1="0" y1="-320" x2="-8" y2="-312" stroke="black"></line>
	<line x1="0" y1="-320" x2="8" y2="-312" stroke="black"></line>
	<line x1="0" y1="0" x2="0" y2="-320" stroke="black" stroke-width="2"></line>
	
	<line x1="0" y1="8" x2="0" y2="-8" stroke="black" stroke-width="2"></line>
	
	<line x1="40" y1="8" x2="40" y2="-8" stroke="black" stroke-width="2"></line>
	
	<line x1="80" y1="8" x2="80" y2="-8" stroke="black" stroke-width="2"></line>
	
	<line x1="120" y1="8" x2="120" y2="-8" stroke="black" stroke-width="2"></line>
	
	<line x1="160" y1="8" x2="160" y2="-8" stroke="black" stroke-width="2"></line>
	
	<line x1="200" y1="8" x2="200" y2="-8" stroke="black" stroke-width="2"></line>
	
	<line x1="-8" y1="0" x2="8" y2="0" stroke="black" stroke-width="2"></line>
	
	<line x1="-8" y1="-40" x2="8" y2="-40" stroke="black" stroke-width="2"></line>
	
	<line x1="-8" y1="-80" x2="8" y2="-80" stroke="black" stroke-width="2"></line>
	
	<line x1="-8" y1="-120" x2="8" y2="-120" stroke="black" stroke-width="2"></line>
	
	<line x1="-8" y1="-160" x2="8" y2="-160" stroke="black" stroke-width="2"></line>
	
	<line x1="-8" y1="-200" x2="8" y2="-200" stroke="black" stroke-width="2"></line>
	
	<line x1="-8" y1="-240" x2="8" y2="-240" stroke="black" stroke-width="2"></line>
	
	<line x1="-8" y1="-280" x2="8" y2="-280" stroke="black" stroke-width="2"></line>
	
	
	
	<text x="40" y="24" text-anchor="middle" dominant-baseline="central" fill="black">1</text>
 
	<text x="80" y="24" text-anchor="middle" dominant-baseline="central" fill="black">2</text>
 
	<text x="120" y="24" text-anchor="middle" dominant-baseline="central" fill="black">3</text>
 
	<text x="160" y="24" text-anchor="middle" dominant-baseline="central" fill="black">4</text>
 
	<text x="200" y="24" text-anchor="middle" dominant-baseline="central" fill="black">5</text>
 
	<text x="240" y="24" text-anchor="middle" dominant-baseline="central" fill="black">6</text>
 
	<text x="40" y="24" text-anchor="middle" dominant-baseline="central" fill="black">1</text>
 
	<text x="80" y="24" text-anchor="middle" dominant-baseline="central" fill="black">2</text>
 
	<text x="120" y="24" text-anchor="middle" dominant-baseline="central" fill="black">3</text>
 
	<text x="160" y="24" text-anchor="middle" dominant-baseline="central" fill="black">4</text>
 
	<text x="200" y="24" text-anchor="middle" dominant-baseline="central" fill="black">5</text>
 
	<text x="240" y="24" text-anchor="middle" dominant-baseline="central" fill="black">6</text>
 
	
	<text x="-24" y="-40" text-anchor="middle" dominant-baseline="central" fill="black">1</text>
 
	<text x="-24" y="-80" text-anchor="middle" dominant-baseline="central" fill="black">2</text>
 
	<text x="-24" y="-120" text-anchor="middle" dominant-baseline="central" fill="black">3</text>
 
	<text x="-24" y="-160" text-anchor="middle" dominant-baseline="central" fill="black">4</text>
 
	<text x="-24" y="-200" text-anchor="middle" dominant-baseline="central" fill="black">5</text>
 
	<text x="-24" y="-240" text-anchor="middle" dominant-baseline="central" fill="black">6</text>
 
	<text x="-24" y="-280" text-anchor="middle" dominant-baseline="central" fill="black">7</text>
 
	<text x="-24" y="-320" text-anchor="middle" dominant-baseline="central" fill="black">8</text>
 
	<text x="-24" y="-40" text-anchor="middle" dominant-baseline="central" fill="black">1</text>
 
	<text x="-24" y="-80" text-anchor="middle" dominant-baseline="central" fill="black">2</text>
 
	<text x="-24" y="-120" text-anchor="middle" dominant-baseline="central" fill="black">3</text>
 
	<text x="-24" y="-160" text-anchor="middle" dominant-baseline="central" fill="black">4</text>
 
	<text x="-24" y="-200" text-anchor="middle" dominant-baseline="central" fill="black">5</text>
 
	<text x="-24" y="-240" text-anchor="middle" dominant-baseline="central" fill="black">6</text>
 
	<text x="-24" y="-280" text-anchor="middle" dominant-baseline="central" fill="black">7</text>
 
	<text x="-24" y="-320" text-anchor="middle" dominant-baseline="central" fill="black">8</text>
 
	<text x="248" y="-12" text-anchor="start" dominant-baseline="central" fill="black">Longueur AB</text>
 
	<text x="0" y="-332" text-anchor="start" dominant-baseline="central" fill="black">Aire de ABCD</text>
 
	<line x1="-8" y1="-8" x2="8" y2="8" stroke="blue"></line>
	<line x1="-8" y1="8" x2="8" y2="-8" stroke="blue"></line>
	<line x1="2" y1="-60.5" x2="18" y2="-44.5" stroke="blue"></line>
	<line x1="2" y1="-44.5" x2="18" y2="-60.5" stroke="blue"></line>
	<line x1="12" y1="-108" x2="28" y2="-92" stroke="blue"></line>
	<line x1="12" y1="-92" x2="28" y2="-108" stroke="blue"></line>
	<line x1="22" y1="-150.5" x2="38" y2="-134.5" stroke="blue"></line>
	<line x1="22" y1="-134.5" x2="38" y2="-150.5" stroke="blue"></line>
	<line x1="32" y1="-188" x2="48" y2="-172" stroke="blue"></line>
	<line x1="32" y1="-172" x2="48" y2="-188" stroke="blue"></line>
	<line x1="42" y1="-220.5" x2="58" y2="-204.5" stroke="blue"></line>
	<line x1="42" y1="-204.5" x2="58" y2="-220.5" stroke="blue"></line>
	<line x1="52" y1="-248" x2="68" y2="-232" stroke="blue"></line>
	<line x1="52" y1="-232" x2="68" y2="-248" stroke="blue"></line>
	<line x1="62" y1="-270.5" x2="78" y2="-254.5" stroke="blue"></line>
	<line x1="62" y1="-254.5" x2="78" y2="-270.5" stroke="blue"></line>
	<line x1="72" y1="-288" x2="88" y2="-272" stroke="blue"></line>
	<line x1="72" y1="-272" x2="88" y2="-288" stroke="blue"></line>
	<line x1="82" y1="-300.5" x2="98" y2="-284.5" stroke="blue"></line>
	<line x1="82" y1="-284.5" x2="98" y2="-300.5" stroke="blue"></line>
	<line x1="92" y1="-308" x2="108" y2="-292" stroke="blue"></line>
	<line x1="92" y1="-292" x2="108" y2="-308" stroke="blue"></line>
	<line x1="102" y1="-310.5" x2="118" y2="-294.5" stroke="blue"></line>
	<line x1="102" y1="-294.5" x2="118" y2="-310.5" stroke="blue"></line>
	<line x1="112" y1="-308" x2="128" y2="-292" stroke="blue"></line>
	<line x1="112" y1="-292" x2="128" y2="-308" stroke="blue"></line>
	<line x1="122" y1="-300.5" x2="138" y2="-284.5" stroke="blue"></line>
	<line x1="122" y1="-284.5" x2="138" y2="-300.5" stroke="blue"></line>
	<line x1="132" y1="-288" x2="148" y2="-272" stroke="blue"></line>
	<line x1="132" y1="-272" x2="148" y2="-288" stroke="blue"></line>
	<line x1="142" y1="-270.5" x2="158" y2="-254.5" stroke="blue"></line>
	<line x1="142" y1="-254.5" x2="158" y2="-270.5" stroke="blue"></line>
	<line x1="152" y1="-248" x2="168" y2="-232" stroke="blue"></line>
	<line x1="152" y1="-232" x2="168" y2="-248" stroke="blue"></line>
	<line x1="162" y1="-220.5" x2="178" y2="-204.5" stroke="blue"></line>
	<line x1="162" y1="-204.5" x2="178" y2="-220.5" stroke="blue"></line>
	<line x1="172" y1="-188" x2="188" y2="-172" stroke="blue"></line>
	<line x1="172" y1="-172" x2="188" y2="-188" stroke="blue"></line>
	<line x1="182" y1="-150.5" x2="198" y2="-134.5" stroke="blue"></line>
	<line x1="182" y1="-134.5" x2="198" y2="-150.5" stroke="blue"></line>
	<line x1="192" y1="-108" x2="208" y2="-92" stroke="blue"></line>
	<line x1="192" y1="-92" x2="208" y2="-108" stroke="blue"></line>
	<line x1="202" y1="-60.5" x2="218" y2="-44.5" stroke="blue"></line>
	<line x1="202" y1="-44.5" x2="218" y2="-60.5" stroke="blue"></line>
	<line x1="212" y1="-8" x2="228" y2="8" stroke="blue"></line>
	<line x1="212" y1="8" x2="228" y2="-8" stroke="blue"></line>
</svg>